<svg xmlns="http://www.w3.org/2000/svg" width="800" height="800" viewBox="0 0 800 800" role="img" aria-labelledby="title desc">
  <title id="title">Hermes Analytics ID logo concept</title>
  <desc id="desc">Minimal caduceus inspired mark with candlestick chart snakes.</desc>
  <rect width="800" height="800" fill="#050505"/>
  <circle cx="400" cy="400" r="310" fill="#07111F" stroke="#C9CED6" stroke-width="6"/>
  <line x1="400" y1="170" x2="400" y2="610" stroke="#C9CED6" stroke-width="18" stroke-linecap="round"/>
  <circle cx="400" cy="145" r="42" fill="none" stroke="#D6A11E" stroke-width="14"/>
  <path d="M400 250 C260 300 260 410 400 455 C540 500 540 610 400 650" fill="none" stroke="#D6A11E" stroke-width="16" stroke-linecap="round"/>
  <path d="M400 250 C540 300 540 410 400 455 C260 500 260 610 400 650" fill="none" stroke="#C9CED6" stroke-width="16" stroke-linecap="round"/>
  <g stroke-linecap="round">
    <line x1="286" y1="323" x2="286" y2="380" stroke="#D6A11E" stroke-width="8"/>
    <rect x="270" y="344" width="32" height="42" fill="#D6A11E"/>
    <line x1="334" y1="422" x2="334" y2="482" stroke="#D6A11E" stroke-width="8"/>
    <rect x="318" y="431" width="32" height="36" fill="#D6A11E"/>
    <line x1="514" y1="323" x2="514" y2="380" stroke="#C9CED6" stroke-width="8"/>
    <rect x="498" y="330" width="32" height="45" fill="#C9CED6"/>
    <line x1="466" y1="422" x2="466" y2="482" stroke="#C9CED6" stroke-width="8"/>
    <rect x="450" y="444" width="32" height="38" fill="#C9CED6"/>
  </g>
  <path d="M268 198 L153 157 L239 255" fill="none" stroke="#C9CED6" stroke-width="12" stroke-linejoin="round"/>
  <path d="M532 198 L647 157 L561 255" fill="none" stroke="#C9CED6" stroke-width="12" stroke-linejoin="round"/>
  <text x="400" y="722" text-anchor="middle" fill="#E8DDC7" font-family="Arial, sans-serif" font-size="42" font-weight="700">HERMES ANALYTICS ID</text>
</svg>
